<svg width="20" height="21" viewBox="0 0 20 21" fill="none" xmlns="http://www.w3.org/2000/svg">
<g clip-path="url(#clip0_6967_541)">
<path d="M12.2936 5.13293L7.03974 8.84755C6.94322 8.9157 6.86369 9.00518 6.80733 9.10903C6.75096 9.21288 6.71928 9.32832 6.71474 9.4464L6.49667 15.2095C6.47359 15.8276 7.15167 16.2191 7.67513 15.8899L12.5567 12.8191C12.6567 12.7561 12.7408 12.671 12.8025 12.5703C12.8643 12.4696 12.902 12.356 12.9128 12.2383L13.5032 5.83178C13.5636 5.17793 12.8298 4.7537 12.2936 5.13293ZM11.8182 7.35255L11.4159 11.7183L8.08898 13.811L8.23782 9.88409L11.8182 7.35255Z" fill="black"/>
<path d="M7.46001 0.825369C7.65739 0.773703 7.86721 0.802562 8.04332 0.905599C8.21942 1.00864 8.34738 1.17741 8.39904 1.37479C8.45071 1.57217 8.42185 1.782 8.31882 1.9581C8.21578 2.13421 8.047 2.26217 7.84962 2.31383C4.15923 3.28037 1.53846 6.6296 1.53846 10.5C1.53846 15.1731 5.32693 18.9615 10 18.9615C14.6735 18.9615 18.4616 15.1731 18.4616 10.5C18.4616 9.84845 18.3885 9.2073 18.2442 8.58499C18.1982 8.38623 18.2331 8.17734 18.3411 8.00426C18.4491 7.83119 18.6214 7.70811 18.8202 7.66211C19.019 7.6161 19.2279 7.65094 19.4009 7.75895C19.574 7.86696 19.6971 8.03931 19.7431 8.23807C19.9135 8.97384 20.0004 9.73153 20.0004 10.5C20.0004 16.0231 15.5235 20.5 10.0004 20.5C4.47731 20.5 0 16.0231 0 10.5C0 5.92576 3.09693 1.96806 7.46001 0.825369Z" fill="black"/>
<path d="M10 0.500001C11.8538 0.4994 13.6712 1.01414 15.2494 1.98673C16.8275 2.95932 18.1042 4.35147 18.9369 6.0077L19.01 6.15616L17.6246 6.82539C16.9447 5.41502 15.8869 4.22095 14.5687 3.37603C13.2506 2.53111 11.7239 2.06848 10.1585 2.03962L10 2.03846V0.500001Z" fill="#00B386"/>
</g>
<defs>
<clipPath id="clip0_6967_541">
<rect width="20" height="21" fill="white"/>
</clipPath>
</defs>
</svg>
