<svg width="123" height="36" viewBox="0 0 123 36" fill="none" xmlns="http://www.w3.org/2000/svg">
<g clip-path="url(#clip0_67503_3249)">
<path d="M35.7313 20.0244L38.7313 28.9965L41.5646 20.0244H45.3146L40.0646 34.3854H37.3146L34.0368 25.6355L30.8979 34.3854H28.1202L22.6758 20.0244H26.648L29.6757 29.1076L32.509 20.0244H35.7313ZM51.7285 19.6633C53.6729 19.6633 55.1915 20.2189 56.284 21.33C57.3768 22.4226 57.9229 23.9874 57.9229 26.0244V34.4132H54.6729C54.6546 34.2651 54.6268 34.0243 54.5896 33.691C54.5712 33.3393 54.534 33.0337 54.4785 32.7743C54.0526 33.441 53.4971 33.941 52.8118 34.2743C52.1451 34.5893 51.3304 34.7465 50.3674 34.7465C49.3674 34.7465 48.4507 34.5707 47.6174 34.2187C46.8026 33.8671 46.1543 33.3576 45.6729 32.691C45.1915 32.006 44.9507 31.2004 44.9507 30.2743C44.9507 29.3115 45.2193 28.4782 45.7563 27.7743C46.3118 27.0522 47.0526 26.4966 47.9785 26.1077C48.9046 25.7189 49.9229 25.5244 51.034 25.5244C52.034 25.5244 53.0618 25.6911 54.1174 26.0244C54.0618 23.8948 53.1546 22.83 51.3951 22.83C49.9879 22.83 48.9601 23.4596 48.3118 24.7189L45.5618 23.1355C46.0804 22.0614 46.8765 21.2189 47.9507 20.6077C49.0249 19.9781 50.284 19.6633 51.7285 19.6633ZM54.1174 28.5799C53.1915 28.3576 52.386 28.2465 51.7007 28.2465C50.7935 28.2465 50.0896 28.4132 49.5896 28.7465C49.0896 29.0615 48.8396 29.5151 48.8396 30.1076C48.8396 30.6449 49.034 31.0615 49.4229 31.3576C49.8304 31.654 50.3488 31.8021 50.9785 31.8021C51.8118 31.8021 52.5435 31.5707 53.1729 31.1076C53.8026 30.6262 54.1174 29.9687 54.1174 29.1354V28.5799ZM68.741 19.6633C70.3338 19.6633 71.5929 20.1911 72.5188 21.2466C73.4449 22.2837 73.9076 23.8022 73.9076 25.8022V34.4132H70.0465V27.0522C70.0465 24.4226 69.1763 23.1077 67.4354 23.1077C66.5096 23.1077 65.7596 23.4689 65.1854 24.1911C64.6299 24.8948 64.3521 25.8948 64.3521 27.1911V34.4132H60.491V20.0244H63.8799C63.9726 21.154 64.056 21.9226 64.1299 22.33C65.056 20.5522 66.5929 19.6633 68.741 19.6633ZM76.7554 14.08H80.7832V30.8021H90.0332V34.4132H76.7554V14.08ZM97.5685 19.6633C99.5129 19.6633 101.031 20.2189 102.124 21.33C103.217 22.4226 103.763 23.9874 103.763 26.0244V34.4132H100.513C100.494 34.2651 100.467 34.0243 100.43 33.691C100.411 33.3393 100.374 33.0337 100.318 32.7743C99.8924 33.441 99.3368 33.941 98.6518 34.2743C97.9851 34.5893 97.1701 34.7465 96.2074 34.7465C95.2074 34.7465 94.2907 34.5707 93.4574 34.2187C92.6424 33.8671 91.9943 33.3576 91.5129 32.691C91.0313 32.006 90.7907 31.2004 90.7907 30.2743C90.7907 29.3115 91.059 28.4782 91.5962 27.7743C92.1518 27.0522 92.8924 26.4966 93.8185 26.1077C94.7443 25.7189 95.7629 25.5244 96.874 25.5244C97.874 25.5244 98.9018 25.6911 99.9574 26.0244C99.9018 23.8948 98.9943 22.83 97.2351 22.83C95.8276 22.83 94.7999 23.4596 94.1518 24.7189L91.4018 23.1355C91.9201 22.0614 92.7165 21.2189 93.7907 20.6077C94.8646 19.9781 96.124 19.6633 97.5685 19.6633ZM99.9574 28.5799C99.0312 28.3576 98.2257 28.2465 97.5407 28.2465C96.6332 28.2465 95.9296 28.4132 95.4296 28.7465C94.9296 29.0615 94.6796 29.5151 94.6796 30.1076C94.6796 30.6449 94.874 31.0615 95.2629 31.3576C95.6701 31.654 96.1887 31.8021 96.8185 31.8021C97.6518 31.8021 98.3832 31.5707 99.0129 31.1076C99.6424 30.6262 99.9574 29.9687 99.9574 29.1354V28.5799ZM114.553 19.6633C115.72 19.6633 116.794 19.9596 117.775 20.5522C118.775 21.1448 119.562 22.0151 120.137 23.1633C120.729 24.3114 121.025 25.6633 121.025 27.2189C121.025 28.7743 120.729 30.1262 120.137 31.2743C119.562 32.404 118.775 33.2651 117.775 33.8576C116.794 34.4504 115.72 34.7465 114.553 34.7465C113.59 34.7465 112.701 34.5429 111.887 34.1354C111.09 33.7282 110.442 33.0985 109.942 32.2465C109.812 33.3021 109.738 34.0243 109.72 34.4132H106.331V13.2744H110.192V21.83C110.711 21.1077 111.34 20.5707 112.081 20.2189C112.84 19.8485 113.664 19.6633 114.553 19.6633ZM113.664 31.441C114.664 31.441 115.47 31.0615 116.081 30.3021C116.711 29.5429 117.025 28.5151 117.025 27.2189C117.025 25.9226 116.72 24.9133 116.109 24.1911C115.498 23.4689 114.683 23.1077 113.664 23.1077C112.683 23.1077 111.859 23.4503 111.192 24.1355C110.525 24.8022 110.192 25.83 110.192 27.2189C110.192 28.6076 110.525 29.6632 111.192 30.3854C111.877 31.0893 112.701 31.441 113.664 31.441Z" fill="black"/>
<path d="M6.83966 18.1933C6.6878 18.2791 6.54444 18.3791 6.41155 18.4919L6.36941 18.5344C6.35261 18.5479 6.33719 18.5629 6.32333 18.5794C3.54394 21.2474 2.32107 25.206 3.583 28.9119C4.29905 31.038 5.72752 32.8522 7.62761 34.0488C9.52769 35.2458 11.7832 35.7519 14.0141 35.4822L14.3555 35.4463C15.8139 35.2297 17.2046 34.6869 18.4234 33.858C19.6423 33.0294 20.6578 31.9363 21.3939 30.6608C22.1301 29.3852 22.5678 27.9602 22.6744 26.4922C22.7811 25.0241 22.5538 23.5511 22.0096 22.1834C21.4765 20.838 20.5359 19.6454 19.6991 18.4735C18.2292 16.4156 16.7567 14.3588 15.2814 12.3028C14.8449 11.6956 14.4046 11.0929 13.9723 10.4852C13.403 9.68264 12.5536 8.83342 12.4074 7.82575C12.2613 6.81806 12.9839 5.755 13.9729 5.45448C15.8366 4.89289 16.945 6.85634 16.949 6.85378C17.2377 7.38034 17.7159 7.77775 18.2869 7.96575C18.858 8.15375 19.4793 8.11831 20.0254 7.86659C20.5714 7.61484 21.0014 7.16559 21.2286 6.60964C21.4557 6.05367 21.4629 5.43245 21.2488 4.8715C20.6236 3.40256 19.5129 2.1921 18.1017 1.44195C16.8559 0.736366 15.4146 0.452555 13.9934 0.632991C12.9984 0.743099 12.0372 1.059 11.1712 1.56054C10.3051 2.06209 9.55325 2.73828 8.96344 3.54595C8.29402 4.47159 7.85741 5.54434 7.69047 6.67364C7.52355 7.80292 7.63122 8.95564 8.00436 10.0345C8.15064 10.439 8.33344 10.8294 8.55044 11.2009C9.17011 12.2814 10.0138 13.2369 10.7464 14.2443C11.6458 15.4814 12.5453 16.7193 13.4448 17.9578C14.3444 19.1963 15.2515 20.4396 16.1661 21.6878C16.91 22.7215 17.696 23.6112 17.9039 24.9252C18.0072 25.6269 17.9637 26.3425 17.7764 27.0268C17.5891 27.7111 17.262 28.3491 16.8156 28.9013C16.3692 29.4533 15.8132 29.9072 15.1827 30.2341C14.5521 30.5613 13.8606 30.7547 13.1516 30.8022C10.6896 30.9488 8.64972 29.3305 8.02775 26.999C7.24602 24.0543 9.40855 22.1656 9.40855 22.1656C9.87027 21.8249 10.1927 21.3287 10.3161 20.7689C10.4394 20.2092 10.3554 19.6239 10.0796 19.1214C9.80369 18.6189 9.35469 18.2334 8.81575 18.0362C8.2768 17.8389 7.68447 17.8434 7.14844 18.0488C7.04602 18.0896 6.94633 18.1368 6.84991 18.1901" fill="black"/>
<path d="M19.7365 9.46022C19.6942 9.47297 19.6527 9.48792 19.612 9.505C19.5288 9.53789 19.4566 9.59361 19.4038 9.66572C19.351 9.7378 19.3198 9.82336 19.3136 9.91244C19.3075 10.0016 19.3267 10.0906 19.3691 10.1692C19.4115 10.2477 19.4754 10.3128 19.5533 10.3567C20.7031 11.0489 21.7069 11.9577 22.5089 13.0327C22.7272 13.3282 22.9228 13.6397 23.094 13.9647C23.2378 14.2455 23.4288 14.6122 23.8078 14.5513C24.1036 14.5054 24.1985 14.2396 24.2536 13.9781C24.5039 12.6218 24.4799 11.2294 24.1831 9.88272C23.9957 9.15175 23.7478 8.43758 23.4421 7.74753C23.3889 7.57825 23.2911 7.42642 23.1587 7.30808C23.076 7.24758 22.9757 7.21558 22.8731 7.21683C22.7706 7.21808 22.6711 7.25253 22.5898 7.31503C22.5144 7.39036 22.4521 7.47761 22.4052 7.57328C22.1054 8.07878 21.6976 8.51208 21.211 8.84233C20.9654 9.00772 20.7033 9.14719 20.4288 9.2585C20.1995 9.35236 19.9597 9.38814 19.7365 9.46022Z" fill="#C60000"/>
</g>
<defs>
<clipPath id="clip0_67503_3249">
<rect width="121.944" height="35" fill="white" transform="translate(0.527344 0.5)"/>
</clipPath>
</defs>
</svg>
