<svg width="155" height="35" viewBox="0 0 155 35" fill="none" xmlns="http://www.w3.org/2000/svg">
<g clip-path="url(#clip0_67503_3230)">
<path d="M4.61475 16.8332C4.45395 16.9031 4.30015 16.9882 4.15545 17.0872L4.10885 17.1253C4.09065 17.137 4.07365 17.1505 4.05805 17.1656C0.999449 19.5447 -0.638751 23.3801 0.233249 27.2239C0.725749 29.4282 1.96295 31.3953 3.73655 32.7937C5.51015 34.1921 7.71155 34.9364 9.96995 34.9011H10.3149C11.7955 34.8377 13.2427 34.4404 14.5481 33.7389C15.8535 33.0374 16.9834 32.0497 17.8533 30.8499C18.7231 29.65 19.3104 28.269 19.5712 26.8102C19.832 25.3513 19.7596 23.8524 19.3594 22.4255C18.9678 21.0221 18.1529 19.7288 17.4395 18.4673C16.1865 16.2519 14.9306 14.0371 13.6719 11.8231C13.2994 11.1691 12.9226 10.5192 12.5543 9.86516C12.0696 9.00156 11.3097 8.06176 11.2695 7.03726C11.2293 6.01286 12.0632 5.02436 13.0835 4.82746C15.0054 4.46136 15.9071 6.54416 15.9113 6.54196C16.1446 7.09966 16.5808 7.54796 17.1319 7.79636C17.683 8.04466 18.3078 8.07455 18.8801 7.87995C19.4524 7.68535 19.9294 7.28075 20.2148 6.74795C20.5003 6.21505 20.5728 5.59376 20.4177 5.00956C19.9471 3.47276 18.964 2.14366 17.6322 1.24396C16.461 0.406356 15.0501 -0.0295442 13.6105 0.00155575C12.6043 0.00705575 11.6103 0.222255 10.692 0.633355C9.77365 1.04436 8.95095 1.64236 8.27655 2.38906C7.51015 3.24556 6.96105 4.27386 6.67555 5.38716C6.39005 6.50046 6.37655 7.66605 6.63615 8.78566C6.73985 9.20616 6.88155 9.61636 7.05945 10.0112C7.56535 11.1585 8.30835 12.2041 8.93485 13.2899C9.70395 14.6234 10.4729 15.9576 11.242 17.2926C12.011 18.6275 12.7871 19.968 13.5703 21.3142C14.2053 22.4276 14.8974 23.4012 14.9673 24.739C14.9967 25.4525 14.8781 26.1645 14.619 26.83C14.3599 27.4955 13.9658 28.1001 13.4616 28.6059C12.9574 29.1117 12.354 29.5077 11.6893 29.7689C11.0246 30.0301 10.3131 30.1509 9.59945 30.1237C7.12295 30.0116 5.25395 28.1764 4.87725 25.7761C4.40525 22.7451 6.76525 21.0814 6.76525 21.0814C7.26265 20.7888 7.63705 20.3258 7.81915 19.7783C8.00125 19.2308 7.97875 18.6358 7.75585 18.1036C7.53285 17.5714 7.12455 17.1381 6.60655 16.8838C6.08855 16.6296 5.49595 16.5718 4.93855 16.7211C4.83195 16.7511 4.72735 16.7878 4.62535 16.8311" fill="black"/>
<path d="M29.9982 25.0916C29.9989 24.2363 29.9281 23.3824 29.7866 22.5389C29.5664 21.2084 29.1535 19.9171 28.561 18.7056C28.2054 17.9838 27.7567 17.2621 27.0539 16.8684C26.7021 16.67 26.3046 16.5666 25.9007 16.5684C25.4968 16.5701 25.1003 16.6769 24.7501 16.8782C24.4 17.0796 24.1082 17.3686 23.9035 17.7168C23.6988 18.065 23.5882 18.4605 23.5826 18.8644C23.5636 19.7555 24.0462 20.5577 24.406 21.379C25.0041 22.7477 25.275 24.2371 25.1971 25.7288C25.1192 27.2205 24.6947 28.6736 23.9573 29.9726C23.912 30.0497 23.8717 30.1296 23.8366 30.2118C23.6867 30.561 23.6083 30.9367 23.6059 31.3167C23.6216 31.8617 23.8244 32.3847 24.1801 32.7979C24.5359 33.2111 25.023 33.4893 25.5596 33.5857C26.874 33.8207 27.9175 32.8343 28.47 31.7337C29.4854 29.6673 30.0085 27.3939 29.9982 25.0916Z" fill="black"/>
<path d="M18.4265 9.44577C18.383 9.45407 18.3399 9.46467 18.2974 9.47747C18.2108 9.50167 18.1328 9.54987 18.0725 9.61647C18.0121 9.68317 17.9718 9.76547 17.9563 9.85407C17.9408 9.94267 17.9507 10.0338 17.9849 10.117C18.019 10.2002 18.076 10.272 18.1492 10.3242C19.2259 11.1383 20.1339 12.1541 20.8226 13.315C21.0097 13.6339 21.1725 13.9664 21.3094 14.3098C21.4237 14.6062 21.5761 14.9935 21.9614 14.9724C22.2619 14.9575 22.3847 14.7014 22.4672 14.4453C22.8599 13.1135 22.9823 11.7166 22.8271 10.3369C22.7165 9.58507 22.5437 8.84387 22.3106 8.12067C22.2753 7.94557 22.1934 7.78327 22.0735 7.65077C21.9971 7.58147 21.9003 7.53887 21.7977 7.52937C21.695 7.51987 21.592 7.54387 21.5041 7.59787C21.4209 7.66537 21.3494 7.74617 21.2925 7.83707C20.9397 8.31167 20.4865 8.70268 19.9653 8.98218C19.7025 9.12198 19.4258 9.23407 19.1398 9.31657C18.9007 9.38647 18.6572 9.39707 18.4265 9.44577Z" fill="#C21E31"/>
<path d="M53.9867 21.5644C53.9867 22.9644 53.6227 24.1404 52.8947 25.0924C52.1854 26.0257 51.252 26.7164 50.0947 27.1644C48.956 27.6124 47.7334 27.8364 46.4267 27.8364C44.5227 27.8364 42.8054 27.3977 41.2747 26.5204C39.744 25.6244 38.7267 24.3644 38.2227 22.7404L41.5267 20.8644C41.9747 21.9097 42.628 22.7217 43.4867 23.3004C44.3454 23.8791 45.372 24.1684 46.5667 24.1684C47.5374 24.1684 48.3027 23.9724 48.8627 23.5804C49.4414 23.1884 49.7307 22.6191 49.7307 21.8724C49.7307 21.2751 49.5347 20.7804 49.1427 20.3884C48.7694 19.9964 48.2934 19.6884 47.7147 19.4644C47.1547 19.2404 46.38 18.9791 45.3907 18.6804C44.0654 18.2884 42.9827 17.9057 42.1427 17.5324C41.3027 17.1404 40.584 16.5617 39.9867 15.7964C39.3894 15.0311 39.0907 14.0231 39.0907 12.7724C39.0907 11.4471 39.436 10.3271 40.1267 9.41238C40.836 8.47908 41.76 7.78838 42.8987 7.34038C44.056 6.87368 45.2974 6.64038 46.6227 6.64038C48.4334 6.64038 49.9827 7.05108 51.2707 7.87238C52.5587 8.69368 53.3894 9.80438 53.7627 11.2044L50.4587 13.0804C50.1227 12.2031 49.6187 11.5217 48.9467 11.0364C48.2747 10.5324 47.4347 10.2804 46.4267 10.2804C45.512 10.2804 44.7654 10.4951 44.1867 10.9244C43.6267 11.3351 43.3467 11.8857 43.3467 12.5764C43.3467 13.0991 43.524 13.5377 43.8787 13.8924C44.2334 14.2284 44.6814 14.5084 45.2227 14.7324C45.7827 14.9377 46.5294 15.1804 47.4627 15.4604C48.8067 15.8524 49.9174 16.2537 50.7947 16.6644C51.672 17.0564 52.4187 17.6537 53.0347 18.4564C53.6694 19.2404 53.9867 20.2764 53.9867 21.5644ZM67.281 12.9964L70.305 22.0404L73.161 12.9964H76.941L71.649 27.4724H68.877L65.573 18.6524L62.409 27.4724H59.609L54.121 12.9964H58.125L61.177 22.1524L64.033 12.9964H67.281ZM83.6857 12.6324C85.6457 12.6324 87.1767 13.1924 88.2777 14.3124C89.3797 15.4137 89.9297 16.9911 89.9297 19.0444V27.5004H86.6537C86.6357 27.3511 86.6077 27.1084 86.5697 26.7724C86.5517 26.4177 86.5137 26.1097 86.4577 25.8484C86.0287 26.5204 85.4687 27.0244 84.7777 27.3604C84.1057 27.6777 83.2847 27.8364 82.3137 27.8364C81.3057 27.8364 80.3822 27.6591 79.5422 27.3044C78.7208 26.9497 78.0675 26.4364 77.5822 25.7644C77.0968 25.0737 76.8542 24.2617 76.8542 23.3284C76.8542 22.3577 77.1248 21.5177 77.6662 20.8084C78.2262 20.0804 78.9728 19.5204 79.9062 19.1284C80.8395 18.7364 81.8657 18.5404 82.9857 18.5404C83.9937 18.5404 85.0297 18.7084 86.0937 19.0444C86.0377 16.8977 85.1237 15.8244 83.3497 15.8244C81.9317 15.8244 80.8955 16.4591 80.2422 17.7284L77.4702 16.1324C77.9928 15.0497 78.7955 14.2004 79.8782 13.5844C80.9608 12.9497 82.2297 12.6324 83.6857 12.6324ZM86.0937 21.6204C85.1607 21.3964 84.3487 21.2844 83.6577 21.2844C82.7437 21.2844 82.0337 21.4524 81.5297 21.7884C81.0257 22.1057 80.7742 22.5631 80.7742 23.1604C80.7742 23.7017 80.9702 24.1217 81.3617 24.4204C81.7727 24.7191 82.2957 24.8684 82.9297 24.8684C83.7697 24.8684 84.5077 24.6351 85.1417 24.1684C85.7767 23.6831 86.0937 23.0204 86.0937 22.1804V21.6204ZM101.115 12.6324C102.72 12.6324 103.99 13.1644 104.923 14.2284C105.856 15.2737 106.323 16.8044 106.323 18.8204V27.5004H102.431V20.0804C102.431 17.4297 101.554 16.1044 99.7987 16.1044C98.8657 16.1044 98.1097 16.4684 97.5307 17.1964C96.9707 17.9057 96.6907 18.9137 96.6907 20.2204V27.5004H92.7987V12.9964H96.2147C96.3077 14.1351 96.3917 14.9097 96.4667 15.3204C97.3997 13.5284 98.9497 12.6324 101.115 12.6324ZM109.474 7.00438H113.534V23.8604H122.858V27.5004H109.474V7.00438ZM130.733 12.6324C132.693 12.6324 134.224 13.1924 135.325 14.3124C136.426 15.4137 136.977 16.9911 136.977 19.0444V27.5004H133.701C133.682 27.3511 133.654 27.1084 133.617 26.7724C133.598 26.4177 133.561 26.1097 133.505 25.8484C133.076 26.5204 132.516 27.0244 131.825 27.3604C131.153 27.6777 130.332 27.8364 129.361 27.8364C128.353 27.8364 127.429 27.6591 126.589 27.3044C125.768 26.9497 125.114 26.4364 124.629 25.7644C124.144 25.0737 123.901 24.2617 123.901 23.3284C123.901 22.3577 124.172 21.5177 124.713 20.8084C125.273 20.0804 126.02 19.5204 126.953 19.1284C127.886 18.7364 128.913 18.5404 130.033 18.5404C131.041 18.5404 132.077 18.7084 133.141 19.0444C133.085 16.8977 132.17 15.8244 130.397 15.8244C128.978 15.8244 127.942 16.4591 127.289 17.7284L124.517 16.1324C125.04 15.0497 125.842 14.2004 126.925 13.5844C128.008 12.9497 129.277 12.6324 130.733 12.6324ZM133.141 21.6204C132.208 21.3964 131.396 21.2844 130.705 21.2844C129.79 21.2844 129.081 21.4524 128.577 21.7884C128.073 22.1057 127.821 22.5631 127.821 23.1604C127.821 23.7017 128.017 24.1217 128.409 24.4204C128.82 24.7191 129.342 24.8684 129.977 24.8684C130.817 24.8684 131.554 24.6351 132.189 24.1684C132.824 23.6831 133.141 23.0204 133.141 22.1804V21.6204ZM148.134 12.6324C149.31 12.6324 150.392 12.9311 151.382 13.5284C152.39 14.1257 153.183 15.0031 153.762 16.1604C154.359 17.3177 154.658 18.6804 154.658 20.2484C154.658 21.8164 154.359 23.1791 153.762 24.3364C153.183 25.4751 152.39 26.3431 151.382 26.9404C150.392 27.5377 149.31 27.8364 148.134 27.8364C147.163 27.8364 146.267 27.6311 145.446 27.2204C144.643 26.8097 143.99 26.1751 143.486 25.3164C143.355 26.3804 143.28 27.1084 143.262 27.5004H139.846V6.19238H143.738V14.8164C144.26 14.0884 144.895 13.5471 145.642 13.1924C146.407 12.8191 147.238 12.6324 148.134 12.6324ZM147.238 24.5044C148.246 24.5044 149.058 24.1217 149.674 23.3564C150.308 22.5911 150.626 21.5551 150.626 20.2484C150.626 18.9417 150.318 17.9244 149.702 17.1964C149.086 16.4684 148.264 16.1044 147.238 16.1044C146.248 16.1044 145.418 16.4497 144.746 17.1404C144.074 17.8124 143.738 18.8484 143.738 20.2484C143.738 21.6484 144.074 22.7124 144.746 23.4404C145.436 24.1497 146.267 24.5044 147.238 24.5044Z" fill="black"/>
</g>
<defs>
<clipPath id="clip0_67503_3230">
<rect width="155" height="35" fill="white"/>
</clipPath>
</defs>
</svg>
